<?xml version="1.0" ?><svg height="512" id="svg2" version="1.1" width="512" xmlns="http://www.w3.org/2000/svg" xmlns:cc="http://creativecommons.org/ns#" xmlns:dc="http://purl.org/dc/elements/1.1/" xmlns:inkscape="http://www.inkscape.org/namespaces/inkscape" xmlns:rdf="http://www.w3.org/1999/02/22-rdf-syntax-ns#" xmlns:sodipodi="http://sodipodi.sourceforge.net/DTD/sodipodi-0.dtd" xmlns:svg="http://www.w3.org/2000/svg"><defs id="defs4"/><g id="layer1" transform="translate(0,-540.3622)"><path d="m 127.40625,657.78125 c -4.9853,0.0784 -9.91077,2.16308 -13.4375,5.6875 l -55,55 c -3.600565,3.59927 -5.696883,8.65895 -5.696883,13.75 0,5.09105 2.096318,10.15073 5.696883,13.75 L 242.25,929.25 c 3.59927,3.60056 8.65895,5.69688 13.75,5.69688 5.09105,0 10.15073,-2.09632 13.75,-5.69688 L 453.03125,745.96875 c 3.60056,-3.59927 5.69688,-8.65895 5.69688,-13.75 0,-5.09105 -2.09632,-10.15073 -5.69688,-13.75 l -55,-55 c -3.59815,-3.59127 -8.65068,-5.68127 -13.73438,-5.68127 -5.08369,0 -10.13622,2.09 -13.73437,5.68127 L 256,778.03125 141.4375,663.46875 c -3.66678,-3.66423 -8.84801,-5.76442 -14.03125,-5.6875 z" id="path3766-1" style="font-size:medium;font-style:normal;font-variant:normal;font-weight:normal;font-stretch:normal;text-indent:0;text-align:start;text-decoration:none;line-height:normal;letter-spacing:normal;word-spacing:normal;text-transform:none;direction:ltr;block-progression:tb;writing-mode:lr-tb;text-anchor:start;baseline-shift:baseline;color:#000000;fill:#222222;fill-opacity:1;fill-rule:nonzero;stroke:none;stroke-width:38.88000107;marker:none;visibility:visible;display:inline;overflow:visible;enable-background:accumulate;font-family:Sans;-inkscape-font-specification:Sans"/></g></svg>