<?xml version="1.0" encoding="utf-8"?>
<!-- Svg Vector Icons : http://www.onlinewebfonts.com/icon -->
<!DOCTYPE svg PUBLIC "-//W3C//DTD SVG 1.1//EN" "http://www.w3.org/Graphics/SVG/1.1/DTD/svg11.dtd">
<svg version="1.1" xmlns="http://www.w3.org/2000/svg" xmlns:xlink="http://www.w3.org/1999/xlink" x="0px" y="0px" viewBox="0 0 1000 1000" enable-background="new 0 0 1000 1000" xml:space="preserve">
<metadata> Svg Vector Icons : http://www.onlinewebfonts.com/icon </metadata>
<g><path d="M467.3,761.3l171.5-196h-392l-171.5,196H467.3z M984.4,211.6c5.1,11.6,6.7,23.8,4.8,36.5c-1.9,12.8-7.1,23.9-15.5,33.5L516.3,804.2c-12.9,15-29.3,22.5-49,22.5h-392c-12.9,0-24.8-3.5-35.5-10.5c-10.7-7-18.8-16.2-24.2-27.8c-5.1-11.6-6.7-23.8-4.8-36.5c1.9-12.8,7.1-23.9,15.5-33.5l457.4-522.7c12.9-15,29.3-22.5,49-22.5h392c12.9,0,24.8,3.5,35.5,10.5C970.9,190.7,979,200,984.4,211.6L984.4,211.6z"/></g>
</svg>