<?xml version="1.0" encoding="iso-8859-1"?>
<!-- Generator: Adobe Illustrator 19.0.0, SVG Export Plug-In . SVG Version: 6.00 Build 0)  -->
<svg version="1.1" id="Layer_1" xmlns="http://www.w3.org/2000/svg" xmlns:xlink="http://www.w3.org/1999/xlink" x="0px" y="0px"
	 viewBox="0 0 512 512" style="enable-background:new 0 0 512 512;" xml:space="preserve">
<path style="fill:#E6E6E6;" d="M242.627,109.256H129.421c-10.916,0-19.766,8.932-19.766,19.95c0,2.813,0.581,5.489,1.621,7.916
	h-33.72c-9.067,0-16.417,7.419-16.417,16.569c0,9.15,7.351,16.57,16.417,16.57h101.479c9.067,0,16.416-7.42,16.416-16.57
	c0-1.574-0.232-3.093-0.638-4.534h47.816c10.915,0,19.766-8.933,19.766-19.951S253.542,109.256,242.627,109.256z"/>
<path style="fill:#BCBCB3;" d="M245.161,476.993c-4.837,0-9.348-2.461-11.999-6.544c-2.65-4.085-3.082-9.241-1.15-13.717
	c31.878-73.846,45.534-159.766,42.982-270.398c-0.091-3.896,1.381-7.665,4.078-10.454c2.699-2.789,6.399-4.361,10.261-4.361h129.987
	c3.862,0,7.562,1.573,10.26,4.361c2.697,2.788,4.169,6.557,4.079,10.454c-2.554,110.631,11.104,196.552,42.981,270.399
	c1.933,4.475,1.499,9.632-1.152,13.716c-2.652,4.082-7.161,6.544-11.998,6.544L245.161,476.993L245.161,476.993z"/>
<path style="fill:#919083;" d="M444.484,193.136c0,6.234-5.046,11.288-11.269,11.288H275.439c-6.223,0-11.269-5.054-11.269-11.288
	v-14.673c0-6.234,5.046-11.288,11.269-11.288h157.775c6.223,0,11.269,5.053,11.269,11.288V193.136z"/>
<path style="fill:#BCBCB3;" d="M46.306,476.993c-4.202,0-8.12-2.137-10.423-5.684c-2.302-3.547-2.679-8.027-0.998-11.915
	c27.688-64.143,39.551-138.774,37.332-234.871c-0.078-3.385,1.202-6.658,3.544-9.081c2.343-2.421,5.558-3.788,8.912-3.788h112.91
	c3.355,0,6.569,1.367,8.913,3.788c2.343,2.421,3.62,5.696,3.542,9.081c-2.216,96.095,9.644,170.728,37.333,234.871
	c1.678,3.888,1.303,8.368-1,11.914c-2.302,3.547-6.219,5.684-10.422,5.684H46.306V476.993z"/>
<path style="fill:#EA5653;" d="M211.007,292.048c-0.456-8.108-0.784-16.384-0.985-24.833H72.236
	c-0.201,8.449-0.529,16.725-0.984,24.833H211.007z"/>
<path style="fill:#666666;" d="M215.858,342.842c-1.119-8.101-2.084-16.372-2.89-24.833H69.29
	c-0.807,8.461-1.772,16.732-2.891,24.833H215.858z"/>
<path style="fill:#919083;" d="M222.013,231.811c0,5.593-4.527,10.126-10.11,10.126H70.357c-5.584,0-10.111-4.534-10.111-10.126
	v-13.165c0-5.592,4.528-10.126,10.111-10.126h141.545c5.584,0,10.11,4.534,10.11,10.126L222.013,231.811L222.013,231.811z"/>
<path style="fill:#CCCCCC;" d="M486.618,15.93H341.259c-14.017,0-25.382,11.47-25.382,25.618c0,3.612,0.745,7.049,2.081,10.165
	H274.66c-11.642,0-21.08,9.525-21.08,21.275s9.438,21.276,21.08,21.276h130.304c11.642,0,21.079-9.526,21.079-21.276
	c0-2.022-0.297-3.97-0.818-5.822h61.394c14.018,0,25.382-11.47,25.382-25.618S500.637,15.93,486.618,15.93z"/>
<g style="opacity:0.1;">
	<path d="M133.729,137.122c-1.04-2.426-1.621-5.102-1.621-7.916c0-11.018,8.85-19.95,19.766-19.95h-22.454
		c-10.916,0-19.766,8.932-19.766,19.95c0,2.813,0.581,5.489,1.621,7.916H133.729z"/>
	<path d="M83.592,153.691c0-9.15,7.351-16.569,16.417-16.569H77.555c-9.067,0-16.417,7.419-16.417,16.569
		c0,9.15,7.351,16.57,16.417,16.57h22.454C90.943,170.261,83.592,162.843,83.592,153.691z"/>
</g>
<g style="opacity:0.1;">
	<path d="M340.413,51.711c-1.336-3.116-2.081-6.553-2.081-10.165c0-14.148,11.364-25.618,25.382-25.618h-22.454
		c-14.017,0-25.382,11.47-25.382,25.618c0,3.612,0.745,7.049,2.081,10.165H340.413z"/>
	<path d="M276.035,72.988c0-11.75,9.438-21.275,21.08-21.275h-22.454c-11.642,0-21.08,9.525-21.08,21.275s9.438,21.276,21.08,21.276
		h22.454C285.472,94.263,276.035,84.738,276.035,72.988z"/>
</g>
<path style="fill:#919083;" d="M255.275,463.361c0,7.53-6.047,13.633-13.506,13.633H13.507C6.047,476.993,0,470.89,0,463.361v-5.453
	c0-7.53,6.047-13.633,13.507-13.633h228.261c7.46,0,13.506,6.103,13.506,13.633V463.361z"/>
<path style="opacity:0.1;enable-background:new    ;" d="M33.117,463.361v-5.453c0-7.53,6.047-13.633,13.507-13.633h27.522
	c21.742-56.7,31.856-121.805,31.437-202.338h-2.109c-5.584,0-10.111-4.534-10.111-10.126v-13.165
	c0-5.592,4.528-10.126,10.111-10.126H70.357c-5.584,0-10.111,4.534-10.111,10.126v13.165c0,5.593,4.528,10.126,10.111,10.126h2.109
	c0.419,80.533-9.695,145.638-31.437,202.338H13.507C6.047,444.275,0,450.378,0,457.907v5.453c0,7.53,6.047,13.633,13.507,13.633
	h32.799h0.319C39.164,476.993,33.117,470.89,33.117,463.361z"/>
<path style="fill:#919083;" d="M510.549,463.361c0,7.53-6.047,13.633-13.506,13.633H268.781c-7.46,0-13.507-6.103-13.507-13.633
	v-5.453c0-7.53,6.048-13.633,13.507-13.633h228.261c7.46,0,13.506,6.103,13.506,13.633V463.361z"/>
<path style="fill:#666666;" d="M438.116,304.464c-0.895-8.124-1.666-16.4-2.305-24.833H272.843
	c-0.641,8.432-1.41,16.709-2.305,24.833H438.116z"/>
<path style="fill:#EA5653;" d="M434.355,255.927c-0.379-8.127-0.638-16.412-0.801-24.833H275.1
	c-0.162,8.421-0.422,16.707-0.8,24.833H434.355z"/>
<path style="opacity:0.1;enable-background:new    ;" d="M265.659,470.449c-2.65-4.085-3.082-9.241-1.149-13.717
	c30.118-69.77,43.962-150.333,43.247-252.318c-6.139-0.097-11.088-5.106-11.088-11.279v-14.673c0-6.234,5.046-11.288,11.269-11.288
	H275.44c-6.223,0-11.269,5.053-11.269,11.288v14.673c0,6.172,4.95,11.181,11.088,11.279
	c0.716,101.985-13.128,182.547-43.247,252.318c-1.933,4.476-1.5,9.633,1.15,13.717c2.651,4.082,7.162,6.544,11.999,6.544h32.497
	C272.822,476.993,268.31,474.533,265.659,470.449z"/>
<path style="fill:#474949;" d="M324.73,366.76c-5.333-21.263-24.398-37.002-47.121-37.002h-43.22
	c-22.723,0-41.788,15.739-47.121,37.002H324.73z"/>
<path style="fill:#666666;" d="M337.04,476.993V376.109c0-7.53-6.048-13.633-13.506-13.633H188.467
	c-7.462,0-13.507,6.103-13.507,13.633v100.884H337.04z"/>
<path style="opacity:0.1;enable-background:new    ;" d="M209.948,362.477h0.093c6.675-19.058,24.662-32.719,45.829-32.719h-21.481
	c-21.169,0-39.155,13.661-45.829,32.719h-0.093c-7.462,0-13.507,6.103-13.507,13.633v100.884h21.481V376.109
	C196.441,368.581,202.487,362.477,209.948,362.477z"/>
<path style="fill:#474949;" d="M270.389,352.136c-4.329,0-7.837,3.509-7.837,7.837v11.895h-13.104v-11.895
	c0-4.328-3.508-7.837-7.837-7.837c-4.329,0-7.837,3.509-7.837,7.837v128.261c0,4.328,3.508,7.837,7.837,7.837
	c4.329,0,7.837-3.509,7.837-7.837v-8.609h13.104v8.609c0,4.328,3.508,7.837,7.837,7.837c4.329,0,7.837-3.509,7.837-7.837V359.973
	C278.226,355.645,274.717,352.136,270.389,352.136z M262.552,417.911h-13.103v-7.348h13.104v7.348H262.552z M249.448,433.584h13.104
	v7.348h-13.104V433.584z M262.552,387.542v7.348h-13.103v-7.348H262.552z M249.448,463.952v-7.348h13.104v7.348H249.448z"/>
<g>
</g>
<g>
</g>
<g>
</g>
<g>
</g>
<g>
</g>
<g>
</g>
<g>
</g>
<g>
</g>
<g>
</g>
<g>
</g>
<g>
</g>
<g>
</g>
<g>
</g>
<g>
</g>
<g>
</g>
</svg>
