<?xml version="1.0" encoding="utf-8"?>
<!-- Svg Vector Icons : http://www.onlinewebfonts.com/icon -->
<!DOCTYPE svg PUBLIC "-//W3C//DTD SVG 1.1//EN" "http://www.w3.org/Graphics/SVG/1.1/DTD/svg11.dtd">
<svg version="1.1" xmlns="http://www.w3.org/2000/svg" xmlns:xlink="http://www.w3.org/1999/xlink" x="0px" y="0px" viewBox="0 0 1000 1000" enable-background="new 0 0 1000 1000" xml:space="preserve">
<metadata> Svg Vector Icons : http://www.onlinewebfonts.com/icon </metadata>
<g><g transform="translate(0.000000,511.000000) scale(0.100000,-0.100000)"><path d="M2411.6,4959c-63.8-51-66.4-66.4-74-326.7l-7.6-273.1l-446.6-7.7c-416-5.1-449.2-10.2-502.8-61.3c-74-68.9-76.6-196.5-10.2-278.2c48.5-58.7,61.3-61.2,510.4-68.9l461.9-7.7v-354.7v-354.7l-456.8-7.7c-405.8-7.7-461.9-12.8-510.4-56.1c-74-66.4-74-219.5,0-285.8c48.5-43.4,107.2-51,505.3-61.2l449.2-12.8l7.6-273.1c10.2-395.6-25.5-377.7,742.7-377.7c694.2,0,852.4,25.5,1133.1,171c237.4,122.5,492.6,377.7,594.6,589.5l74,155.7h283.3c247.5,2.6,293.5,10.2,352.2,56.2c51,40.8,66.3,74,66.3,153.1v99.5h461.9c364.9,0,515.5-10.2,719.7-53.6c913.6-183.7,1646.1-867.7,1886-1758.4c74-278.2,81.7-832,12.8-1105c-211.8-852.4-839.6-1498.1-1715-1771.2l-229.7-71.5l-2450-12.8c-2735.8-15.3-2554.6-2.5-2963-204.2C872.7-1811.7,525.6-2243,415.8-2702.4c-48.5-211.8-48.5-597.2,2.6-796.2c142.9-558.9,571.7-1010.6,1145.9-1209.7l204.2-68.9l3856.2-7.7l3856.2-5.1l66.3,53.6c97,74,97,227.1,2.6,301.2l-68.9,53.6H5714c-4136.9,0-3922.6-7.7-4244.1,155.7c-91.9,46-227.1,148-319,239.9c-735,737.6-329.2,1960,717.1,2159.1c71.5,12.8,1092.3,23,2386.2,23c2488.3,0,2516.3,2.5,2952.7,155.7c456.8,160.8,791.2,375.2,1120.4,717.2c469.6,484.9,712,997.9,783.5,1651.2c56.2,500.2-35.7,985.1-273.1,1470c-280.7,571.7-712.1,1003-1286.3,1288.8c-449.2,224.6-714.6,280.7-1411.3,298.6l-556.3,12.8v97c0,76.6-15.3,109.7-66.3,150.6c-58.7,45.9-104.6,53.6-344.5,53.6h-275.6l-84.2,158.2c-114.8,219.5-372.6,472.1-597.2,589.5c-290.9,150.6-423.7,171-1122.9,171C2511.1,5010,2472.8,5007.5,2411.6,4959z M3981.1,4504.7c270.5-132.7,456.8-342,546.1-615.1c61.3-186.3,99.5-206.7,410.9-206.7H5201v-102.1v-102.1h-262.8c-311.4,0-349.6-20.4-410.9-206.7c-89.3-273.1-275.6-482.3-546.1-615.1l-168.4-84.2l-543.6-7.7l-543.6-10.2v1025.9v1025.9l543.6-10.2l543.6-7.7L3981.1,4504.7z"/><path d="M3325.2,3721.2c-40.8-38.3-63.8-91.9-63.8-140.4c0-97,99.5-204.2,188.8-204.2c99.5,0,201.6,104.6,201.6,204.2c0,61.2-17.9,102.1-68.9,145.5C3493.6,3802.9,3401.8,3800.3,3325.2,3721.2z"/></g></g>
</svg>